<svg version="1.1" id="Layer_1" xmlns="http://www.w3.org/2000/svg" xmlns:xlink="http://www.w3.org/1999/xlink" x="0px" y="0px"
	 width="100%" viewBox="0 0 500 500" enable-background="new 0 0 500 500" xml:space="preserve">
<path fill="#000000" opacity="1.000000" stroke="none" 
	d="
M241.000000,501.000000 
	C162.000015,501.000000 83.499992,500.971436 5.000209,501.096130 
	C1.575938,501.101562 0.903036,500.423828 0.905301,497.000000 
	C1.013779,333.000092 1.013772,169.000122 0.905334,5.000238 
	C0.903070,1.576918 1.575820,0.903022 4.999885,0.905287 
	C168.999771,1.013774 332.999725,1.013761 496.999634,0.905353 
	C500.422668,0.903090 501.096985,1.575445 501.094727,4.999766 
	C500.986206,168.999649 500.986237,332.999603 501.094604,496.999512 
	C501.096893,500.422272 500.425446,501.100861 497.000275,501.095947 
	C411.833649,500.973602 326.666809,501.000000 241.000000,501.000000 
z"/>
<path fill="#FFFFFF" opacity="1.000000" stroke="none" 
	d="
M334.001373,256.000000 
	C321.053131,256.256958 308.683014,255.906891 297.101715,250.520874 
	C295.449646,249.752548 293.852783,250.029175 292.242737,250.027466 
	C258.083527,249.991196 223.924271,249.983307 189.765060,250.013229 
	C182.392975,250.019684 175.662491,253.343765 168.455704,254.413940 
	C165.800720,254.808197 163.245560,254.661606 160.249512,255.031433 
	C162.735626,248.327377 164.003357,241.538895 164.779938,234.821533 
	C165.751633,226.416656 162.920029,218.436310 157.964478,211.595673 
	C150.218765,200.903488 139.517014,195.722931 126.259750,196.002365 
	C109.647652,196.352493 95.942451,208.702209 91.933495,223.925598 
	C89.387032,233.595413 92.327560,242.637924 94.509064,251.701523 
	C95.496201,255.802795 94.351761,256.425690 90.985855,255.987396 
	C81.768852,254.787247 72.381554,254.980820 63.297901,252.873566 
	C60.987747,252.337662 57.877579,251.749756 57.112263,248.862564 
	C56.491791,246.521774 58.282028,245.056488 59.840420,243.264633 
	C61.439274,241.426254 62.189484,239.532074 65.164635,239.850174 
	C66.350700,239.976959 66.305252,238.136414 65.738998,237.507141 
	C62.861206,234.308945 64.787827,228.480377 59.414433,226.424622 
	C58.477440,226.066147 57.892185,221.609238 60.024994,220.770538 
	C64.427132,219.039490 62.008324,216.119614 61.460945,214.128250 
	C58.458340,203.204803 58.267097,203.154526 67.663719,196.875961 
	C78.116768,189.891479 89.748093,186.196762 102.088310,183.845474 
	C115.126701,181.361160 128.171936,180.732544 141.340271,181.008804 
	C151.637939,181.224823 161.632141,183.700867 171.700165,185.479614 
	C173.828445,185.855637 175.526123,185.926285 177.170639,184.945953 
	C188.518539,178.181320 200.282974,172.196991 212.152512,166.437897 
	C223.974625,160.701782 236.540207,157.723663 249.583740,155.808090 
	C264.762299,153.578964 279.923737,153.940598 295.099792,154.083176 
	C315.184113,154.271881 334.714417,158.390915 354.063965,163.509811 
	C368.978363,167.455414 383.828094,171.829315 398.952423,174.731812 
	C408.793823,176.620468 418.866852,177.789230 428.875336,178.949341 
	C436.146301,179.792160 442.473053,184.764725 444.307037,191.747391 
	C445.201965,195.154663 441.867157,197.934128 442.804108,201.415848 
	C442.967804,202.024124 441.608490,202.625443 442.226776,203.571869 
	C446.443329,210.026520 443.462860,216.817474 443.164795,223.482117 
	C443.135559,224.136185 442.832397,224.869293 443.035248,225.428192 
	C444.879974,230.510437 442.695801,233.084091 438.074341,235.197556 
	C435.619598,236.320145 437.338593,239.541779 437.125031,242.207443 
	C438.059448,241.822495 438.613800,241.482834 439.211121,241.369720 
	C440.776672,241.073135 442.483582,238.504700 443.826904,240.806259 
	C444.952881,242.735489 443.499939,244.824982 441.601044,245.721298 
	C436.970703,247.907013 432.239929,249.894730 427.477325,251.779694 
	C424.772461,252.850266 424.621338,250.727798 425.088867,249.115509 
	C426.228943,245.184113 426.444336,241.128769 427.162048,237.162781 
	C429.073975,226.597519 425.585602,217.903854 419.326569,209.790680 
	C411.706116,199.912781 401.440796,195.981079 389.308899,195.996826 
	C373.778198,196.016968 358.495605,208.628174 354.933380,223.878220 
	C352.613190,233.810867 354.937164,243.363754 356.588013,252.946472 
	C357.284607,256.989929 356.790985,257.375763 352.893616,256.514252 
	C346.872681,255.183319 340.638733,256.227325 334.001373,256.000000 
z"/>
<path fill="#FFFFFF" opacity="1.000000" stroke="none" 
	d="
M358.948486,241.846619 
	C353.256348,219.666931 368.800812,200.389526 388.569366,199.927567 
	C396.791718,199.735428 404.072601,201.328690 410.923096,206.264725 
	C424.100891,215.759781 428.138428,236.840118 419.101135,250.418518 
	C406.833740,268.850037 383.846619,271.159485 367.340057,256.695343 
	C363.083405,252.965363 360.167328,248.015732 358.948486,241.846619 
z"/>
<path fill="#FFFFFF" opacity="1.000000" stroke="none" 
	d="
M133.582855,200.000595 
	C148.121002,203.467361 156.802429,211.814499 160.206146,226.364227 
	C164.196609,243.422073 152.506912,260.898590 136.547455,264.968506 
	C119.254280,269.378540 99.649574,260.217010 95.446419,240.711487 
	C90.808731,219.189453 105.210670,200.271637 126.129768,200.004044 
	C128.462357,199.974197 130.795654,200.000046 133.582855,200.000595 
z"/>
<path fill="#FFFFFF" opacity="1.000000" stroke="none" 
	d="
M33.006615,303.607422 
	C34.469242,299.929321 36.910328,298.814758 40.477211,298.929443 
	C47.790009,299.164551 55.115803,298.972687 62.435966,299.010193 
	C66.865105,299.032928 70.412163,302.978455 70.011330,307.272278 
	C69.930786,308.135132 69.900192,309.112701 68.798508,308.937408 
	C66.539658,308.578064 63.449875,310.397247 62.204098,307.741943 
	C61.412403,306.054504 60.657280,306.006744 59.374969,306.004517 
	C53.884716,305.994995 48.381119,306.230469 42.909157,305.913910 
	C39.624947,305.723907 40.060055,307.549957 39.963974,309.582825 
	C39.854965,311.889191 40.114258,313.210693 43.076756,313.079010 
	C49.054333,312.813324 55.054058,313.095795 61.040707,312.967773 
	C65.351089,312.875641 67.907524,314.413788 69.171349,318.862030 
	C69.967079,321.662750 70.311539,324.418549 69.894051,327.065857 
	C69.044403,332.453491 67.001961,335.514832 61.077808,335.116852 
	C53.790329,334.627380 46.444912,335.011475 39.124592,334.995392 
	C35.145626,334.986664 33.019192,332.937653 33.059834,328.982330 
	C33.073223,327.679260 32.084232,325.239441 33.988281,325.237152 
	C35.917553,325.234863 39.076527,322.888733 40.048553,326.948181 
	C40.446941,328.611938 41.891769,327.961456 42.904469,327.972534 
	C48.227730,328.030884 53.567970,327.746826 58.870663,328.082153 
	C62.910809,328.337616 61.797710,325.763550 62.031658,323.635132 
	C62.323433,320.980591 61.682610,319.804230 58.635296,319.924774 
	C52.323044,320.174469 45.993393,319.945862 39.672096,320.018402 
	C35.216114,320.069519 32.939297,318.068115 32.992878,313.533508 
	C33.030224,310.372925 33.000542,307.211487 33.006615,303.607422 
z"/>
<path fill="#FFFFFF" opacity="1.000000" stroke="none" 
	d="
M312.225616,328.629333 
	C308.472687,323.188293 304.490417,321.715057 298.601227,322.937042 
	C296.855347,323.299286 297.011810,324.245148 297.004333,325.387360 
	C296.992310,327.220032 296.942627,329.055145 297.014282,330.885101 
	C297.109253,333.311340 297.339752,335.222015 293.614899,335.158539 
	C290.286957,335.101929 289.890564,333.953827 289.939453,331.119476 
	C290.100342,321.791748 290.111237,312.457428 289.936340,303.130188 
	C289.879456,300.095551 290.366180,298.782928 293.884521,298.904724 
	C302.371796,299.198547 310.876373,299.042938 319.373383,298.982513 
	C323.855164,298.950684 326.066833,301.019867 326.007507,305.527832 
	C325.968018,308.526398 325.837799,311.536713 326.036255,314.522614 
	C326.372955,319.588562 324.386292,322.672394 318.908661,323.273346 
	C319.904388,326.723602 323.524323,328.001129 324.726593,331.083435 
	C325.116943,332.084137 326.380127,332.787323 325.913849,334.109344 
	C325.356171,335.690460 323.955231,334.770630 322.941467,334.994934 
	C317.599518,336.176575 315.570587,331.584473 312.225616,328.629333 
z"/>
<path fill="#FFFFFF" opacity="1.000000" stroke="none" 
	d="
M114.816818,313.000000 
	C109.844398,313.000000 105.349792,313.024323 100.855637,312.990356 
	C98.384514,312.971680 95.710007,313.959991 95.820656,309.361847 
	C95.922623,305.124512 98.312134,306.019287 100.623909,306.008759 
	C106.449883,305.982239 112.314102,306.415070 118.091698,305.885742 
	C124.126816,305.332764 126.501907,308.991974 126.900505,314.448151 
	C127.335960,320.408875 126.888420,326.429077 127.053558,332.417084 
	C127.120346,334.838776 126.015945,335.053375 124.074783,335.031647 
	C116.917908,334.951385 109.758873,335.060669 102.602081,334.976807 
	C98.260513,334.925934 96.251839,332.288177 96.019539,328.222321 
	C95.378502,317.002106 95.415115,317.000000 106.760681,317.000000 
	C109.590500,317.000000 112.431152,317.145538 115.245377,316.936066 
	C116.569534,316.837494 118.784943,318.229187 119.011475,315.272614 
	C119.264603,311.969025 116.819710,313.282104 114.816818,313.000000 
z"/>
<path fill="#FFFFFF" opacity="1.000000" stroke="none" 
	d="
M224.137970,335.000000 
	C219.722870,335.195709 215.474091,335.614380 213.686081,331.049438 
	C212.026352,326.811920 213.077652,322.221802 213.175064,317.803467 
	C213.204681,316.460327 215.136688,317.036896 216.207397,317.026001 
	C221.699905,316.970093 227.193619,317.033203 232.686127,316.977783 
	C234.157104,316.962952 236.165680,317.761414 236.043610,314.833221 
	C235.935043,312.228394 234.128952,313.049133 232.855820,313.031372 
	C227.530243,312.957123 222.197464,312.855072 216.878647,313.058624 
	C214.041489,313.167145 212.896683,312.713928 212.841827,309.388519 
	C212.780624,305.679047 214.671387,305.950592 217.104858,305.977966 
	C223.096558,306.045319 229.125992,306.411896 235.071793,305.885315 
	C241.139679,305.347900 243.489197,308.969116 243.898071,314.428070 
	C244.344421,320.387054 243.889923,326.408356 244.053375,332.396332 
	C244.118759,334.791290 243.065994,335.068970 241.095413,335.033813 
	C235.604095,334.935883 230.109863,334.999908 224.137970,335.000000 
z"/>
<path fill="#FFFFFF" opacity="1.000000" stroke="none" 
	d="
M424.277985,306.025391 
	C431.565918,306.002167 438.377655,305.974274 445.189117,306.008301 
	C450.851166,306.036560 452.942444,308.045074 452.988220,313.541229 
	C453.039398,319.687866 452.896027,325.837921 453.052277,331.980988 
	C453.112549,334.350922 452.450806,335.110382 450.021423,335.055420 
	C443.047241,334.897552 436.067078,335.020386 429.089447,334.991974 
	C425.124603,334.975800 423.138153,332.917145 422.993591,328.963837 
	C422.556061,316.999603 422.544830,317.000000 434.474579,316.999969 
	C437.298889,316.999969 440.124542,317.050354 442.946960,316.977509 
	C444.264801,316.943512 445.989929,317.656830 446.054596,315.083557 
	C446.117493,312.581970 444.548462,313.008667 443.111694,313.005035 
	C438.127625,312.992462 433.143463,313.001953 428.159363,312.999512 
	C422.160248,312.996582 421.907867,312.592346 424.277985,306.025391 
z"/>
<path fill="#FFFFFF" opacity="1.000000" stroke="none" 
	d="
M331.000000,323.868958 
	C331.000183,319.730713 330.770203,316.051788 331.062683,312.414825 
	C331.381409,308.450958 333.071808,305.713623 337.849945,305.939850 
	C343.328339,306.199280 348.846008,306.267334 354.313110,305.908295 
	C358.110382,305.658936 360.194489,307.699127 360.703217,310.621796 
	C361.378143,314.499329 361.015656,318.571838 360.950592,322.558136 
	C360.914734,324.756042 359.059967,323.949799 357.936340,323.964935 
	C352.280304,324.041046 346.622589,323.981415 340.965698,324.013550 
	C339.589417,324.021393 337.934448,323.462463 337.944183,326.011658 
	C337.953888,328.568604 339.628174,327.975128 340.988586,327.984131 
	C346.645386,328.021576 352.312653,328.201141 357.955627,327.919220 
	C360.984161,327.767914 361.102020,329.201508 361.036713,331.449860 
	C360.976318,333.531403 361.277802,335.234100 358.058075,335.087524 
	C351.582520,334.792725 345.084106,335.005554 338.595123,334.998291 
	C333.031158,334.992065 331.099854,333.040741 331.002411,327.341553 
	C330.985352,326.343536 331.000000,325.345001 331.000000,323.868958 
z"/>
<path fill="#FFFFFF" opacity="1.000000" stroke="none" 
	d="
M202.903366,335.000000 
	C194.916077,335.000000 187.416183,335.020844 179.916489,334.992920 
	C174.616898,334.973175 172.167175,332.750580 172.039841,327.411926 
	C171.876968,320.582642 171.907944,313.744904 172.028931,306.913910 
	C172.127640,301.340515 174.593445,299.018250 180.090195,299.005310 
	C188.589935,298.985260 197.093079,299.135651 205.587708,298.926422 
	C208.557312,298.853241 209.046463,299.892151 209.108475,302.586182 
	C209.176987,305.563782 208.097931,306.122070 205.410782,306.058014 
	C198.248383,305.887390 191.070343,306.210510 183.916550,305.909271 
	C180.454849,305.763458 179.775436,307.002869 179.936935,310.102844 
	C180.179367,314.756744 180.256668,319.451477 179.915970,324.093018 
	C179.659485,327.587219 181.040573,328.160126 184.113495,328.065521 
	C190.940186,327.855316 197.778198,328.043091 204.610733,327.977905 
	C207.196930,327.953247 209.203751,327.568939 209.181519,331.611084 
	C209.157990,335.893036 206.704086,334.927521 204.390808,334.998596 
	C204.057800,335.008820 203.724182,335.000000 202.903366,335.000000 
z"/>
<path fill="#FFFFFF" opacity="1.000000" stroke="none" 
	d="
M366.000000,325.960205 
	C366.000061,319.979858 366.114288,314.491150 365.947296,309.011017 
	C365.874573,306.624268 366.573364,305.889404 368.989594,305.945251 
	C375.800934,306.102631 382.619080,305.937134 389.432983,306.023224 
	C393.785309,306.078156 395.935059,308.555298 395.981293,312.797211 
	C396.051910,319.278961 395.856476,325.766754 396.066986,332.242432 
	C396.157043,335.012146 394.831757,335.163116 392.769440,335.019592 
	C390.895508,334.889191 388.765747,335.691437 388.931824,332.284271 
	C389.190460,326.977875 388.889984,321.646271 389.048676,316.332031 
	C389.122223,313.868713 388.588562,312.979431 385.836487,312.915680 
	C372.997528,312.618164 373.000000,312.512085 373.000000,325.111816 
	C373.000000,326.774017 373.025055,328.436646 372.994080,330.098267 
	C372.948364,332.552277 374.045563,335.229919 369.421692,335.176361 
	C364.706421,335.121674 366.214874,332.233643 366.017426,329.944397 
	C365.917816,328.789459 366.000000,327.618835 366.000000,325.960205 
z"/>
<path fill="#FFFFFF" opacity="1.000000" stroke="none" 
	d="
M74.000000,301.120239 
	C73.448891,297.213562 74.335243,295.857910 78.342812,295.808014 
	C82.869118,295.751678 82.298302,298.380035 81.925995,300.813599 
	C81.229721,305.364777 83.071846,306.399078 87.310287,306.182648 
	C89.050949,306.093750 92.544533,303.814484 93.010544,308.275330 
	C93.346069,311.487091 93.052513,313.419495 88.742035,313.130890 
	C82.024429,312.681152 82.000069,313.045013 82.000000,319.718811 
	C82.000000,320.217316 81.999992,320.715851 82.000000,321.214355 
	C82.000069,327.959595 82.000755,328.030121 88.683647,327.965302 
	C91.359535,327.939392 93.228752,327.750977 93.173958,331.662170 
	C93.121490,335.406525 91.228111,335.063354 88.862083,335.012085 
	C86.370682,334.958099 83.876526,335.037506 81.384789,334.992035 
	C76.469505,334.902405 74.042282,332.491150 74.013809,327.529938 
	C73.964218,318.889343 74.000008,310.248230 74.000000,301.120239 
z"/>
<path fill="#FFFFFF" opacity="1.000000" stroke="none" 
	d="
M408.000000,317.120605 
	C408.000000,318.435028 408.000000,319.267517 408.000000,320.099976 
	C408.000000,327.789917 408.000977,327.958771 415.592255,327.915405 
	C418.550232,327.898499 419.046021,328.894226 419.107452,331.581573 
	C419.175110,334.542694 418.126099,335.264862 415.420319,335.046478 
	C412.773651,334.832855 410.095856,334.969604 407.432465,335.006989 
	C403.204102,335.066345 401.000061,333.076477 401.000061,328.785645 
	C401.000092,318.962524 401.137573,309.136322 400.919922,299.318024 
	C400.850769,296.198029 402.094635,295.896027 404.676575,295.916260 
	C407.140167,295.935577 408.483002,296.401947 408.020691,299.171570 
	C407.885498,299.981445 408.114563,300.852081 407.980011,301.662170 
	C407.420502,305.030579 408.525024,306.656769 412.168060,306.030273 
	C413.300049,305.835632 414.517456,306.150391 415.654663,305.971130 
	C418.733795,305.485687 419.131897,307.031677 419.082275,309.651917 
	C419.036621,312.063812 418.684753,313.449066 415.852509,313.037445 
	C414.385071,312.824188 412.835876,313.175018 411.367889,312.963623 
	C408.310547,312.523407 407.603485,314.023499 408.000000,317.120605 
z"/>
<path fill="#FFFFFF" opacity="1.000000" stroke="none" 
	d="
M464.000000,317.969238 
	C464.000031,320.455841 464.160553,322.464691 463.960999,324.437134 
	C463.687439,327.141235 464.465332,328.475586 467.414154,328.016571 
	C470.924011,327.470245 469.783569,330.138458 470.009125,331.882263 
	C470.295502,334.096405 469.717316,334.999695 467.145752,335.082886 
	C457.932312,335.380829 456.000000,333.654480 456.000000,324.323822 
	C456.000000,316.021271 456.220917,307.710175 455.898560,299.420135 
	C455.756317,295.762146 457.579742,296.024231 460.060516,295.936035 
	C462.784515,295.839233 464.282654,296.105347 464.091736,299.546875 
	C463.761139,305.506378 463.999969,311.497437 464.000000,317.969238 
z"/>
<path fill="#FFFFFF" opacity="1.000000" stroke="none" 
	d="
M138.299744,306.000000 
	C142.919846,306.000061 147.082504,306.178589 151.220673,305.937317 
	C153.966217,305.777283 154.190430,307.113281 154.017822,309.206055 
	C153.865753,311.049408 154.744812,313.342926 151.312561,313.052032 
	C148.344284,312.800446 145.315521,313.228180 142.354050,312.939484 
	C139.007523,312.613312 137.648392,313.460846 137.911942,317.142609 
	C138.266769,322.099884 137.774551,327.115265 138.073700,332.079926 
	C138.297852,335.800049 135.945236,334.940918 133.933289,335.000763 
	C131.781891,335.064789 129.725357,335.525269 129.914322,331.946350 
	C130.229156,325.983765 129.980896,319.992340 130.005524,314.013245 
	C130.028854,308.351929 132.030914,306.324310 138.299744,306.000000 
z"/>
<path fill="#FFFFFF" opacity="1.000000" stroke="none" 
	d="
M247.000000,315.257538 
	C247.061829,307.913239 248.903458,306.015656 255.549011,306.001465 
	C259.369171,305.993317 263.193542,306.109192 267.008026,305.962219 
	C269.620361,305.861542 271.167725,305.960297 271.159912,309.485138 
	C271.152191,312.958893 269.697388,313.333588 267.039703,313.002655 
	C266.876129,312.982269 266.707855,312.999298 266.541748,313.000092 
	C255.000000,313.056030 255.000000,313.056030 255.000000,324.393097 
	C255.000000,326.386230 254.741959,328.420685 255.053314,330.363922 
	C255.716614,334.503693 253.814011,335.226166 250.150085,335.118347 
	C247.396149,335.037292 246.880005,334.117126 246.951996,331.667938 
	C247.108093,326.357513 247.000046,321.039307 247.000000,315.257538 
z"/>
<path fill="#000000" opacity="1.000000" stroke="none" 
	d="
M213.072296,173.994202 
	C228.397003,166.899338 244.128540,161.575043 260.439819,160.375244 
	C276.216644,159.214752 292.250183,158.912231 308.131226,160.935562 
	C310.202332,161.199432 310.203552,162.281311 309.961578,163.590378 
	C308.297119,172.594604 307.887146,181.732315 307.060120,190.822113 
	C306.897339,192.611160 306.332611,193.028244 304.686035,193.024658 
	C285.862946,192.983658 266.986511,193.861694 248.234619,192.705673 
	C234.964203,191.887558 221.736252,192.860245 208.583710,191.770462 
	C211.808609,185.460007 208.912338,183.293411 195.496521,182.862595 
	C201.735275,179.656311 207.208557,176.843414 213.072296,173.994202 
z"/>
<path fill="#000000" opacity="1.000000" stroke="none" 
	d="
M343.313965,167.706390 
	C353.488190,170.286758 363.281128,172.644562 372.556915,176.859146 
	C375.861786,178.360779 375.307465,179.596771 373.181396,181.293961 
	C367.968201,185.455490 361.479919,186.761459 355.287354,187.824112 
	C342.320557,190.049225 329.186188,191.294083 316.125702,192.980835 
	C314.187012,193.231232 313.867035,192.245346 313.996857,190.676147 
	C314.713135,182.019806 315.294647,173.349258 316.226440,164.716400 
	C316.411774,162.999283 317.304535,161.627319 320.296265,162.492310 
	C327.711243,164.636200 335.392029,165.860794 343.313965,167.706390 
z"/>
<path fill="#000000" opacity="1.000000" stroke="none" 
	d="
M67.291405,215.215424 
	C66.397675,215.807327 65.617401,217.244751 65.255234,216.399841 
	C63.938484,213.327942 62.377811,210.108032 62.187469,206.868820 
	C61.940861,202.672012 66.118568,202.636826 68.931335,202.105820 
	C72.254135,201.478516 70.728996,204.408234 70.963295,205.856369 
	C71.550262,209.484406 70.920708,212.753708 67.291405,215.215424 
z"/>
<path fill="#000000" opacity="1.000000" stroke="none" 
	d="
M285.880737,199.599030 
	C291.091064,198.293823 295.837982,199.432999 301.386169,200.531662 
	C294.568726,202.967163 288.511536,202.061539 281.672150,201.277756 
	C283.345337,199.545929 284.560242,200.238770 285.880737,199.599030 
z"/>
<path fill="#000000" opacity="1.000000" stroke="none" 
	d="
M435.443726,205.194397 
	C432.762268,202.835052 435.694702,201.037476 436.100494,198.910782 
	C436.424805,197.211456 438.579651,198.271317 439.721191,197.450409 
	C439.999969,197.249969 440.982239,198.524338 440.573792,198.816925 
	C438.713379,200.149704 441.870514,203.397385 438.465759,204.029785 
	C437.546509,204.200546 436.684814,204.681412 435.443726,205.194397 
z"/>
<path fill="#000000" opacity="1.000000" stroke="none" 
	d="
M409.235474,220.302094 
	C414.481506,227.184509 415.898285,236.406815 408.736420,245.933289 
	C410.616608,240.602005 413.298431,235.396896 411.643341,229.392746 
	C408.509918,230.062592 405.222626,230.593201 402.037354,231.487198 
	C397.427673,232.781006 396.330872,235.503586 398.452179,239.924332 
	C398.976532,241.016998 399.494019,241.294876 397.620422,241.276123 
	C395.747620,241.257401 397.339264,242.903259 397.520447,244.117371 
	C397.730743,244.659409 397.672638,244.881271 397.270691,245.092346 
	C396.320984,244.178848 395.517120,243.349152 395.151672,242.357803 
	C394.453796,240.464798 394.541443,238.562576 395.642242,236.738434 
	C397.254456,234.066910 397.826721,231.326004 395.321686,228.242950 
	C400.676208,228.411911 404.516632,225.107132 409.107819,223.928665 
	C410.580078,223.550751 410.015015,222.529297 409.064667,221.415070 
	C408.914917,220.846558 408.909668,220.618256 409.235474,220.302094 
z"/>
<path fill="#000000" opacity="1.000000" stroke="none" 
	d="
M385.281189,237.109894 
	C382.811066,229.964783 376.270905,231.063919 371.100830,229.703979 
	C369.934265,229.397156 368.608185,231.724335 369.087036,233.416321 
	C370.210419,237.385590 370.534393,241.632538 373.111816,245.463654 
	C368.880035,242.509979 366.624146,234.111557 368.454681,228.040131 
	C368.730835,227.124237 368.966370,226.196106 369.590149,225.098969 
	C372.614685,228.053818 376.789459,227.761673 378.752502,228.801865 
	C376.922882,227.955215 373.396912,227.346207 370.121033,225.238846 
	C370.250305,223.945465 369.517609,222.511124 371.134857,221.473602 
	C371.628815,221.286957 371.848236,221.340790 372.075043,221.733475 
	C372.069946,225.279755 374.948853,224.304398 376.549805,225.217728 
	C378.937958,226.580170 381.437927,227.535065 384.531616,227.957214 
	C385.152985,227.917130 385.381012,227.913864 385.694946,228.241760 
	C384.363892,230.890671 385.072845,233.363739 385.520203,236.116913 
	C385.738708,236.671753 385.689941,236.907852 385.281189,237.109894 
z"/>
<path fill="#000000" opacity="1.000000" stroke="none" 
	d="
M402.738708,214.686005 
	C394.126556,210.635468 393.220642,211.115845 393.044373,220.156464 
	C392.998108,222.526703 391.984619,225.343719 395.321655,227.005722 
	C392.636475,227.005722 390.311981,227.005722 387.613220,227.119019 
	C388.714142,225.381226 389.875000,223.521378 388.535797,221.014267 
	C388.099915,220.198242 388.064697,219.119965 388.015930,218.153076 
	C387.637238,210.643219 387.650055,210.642578 380.463440,214.038467 
	C379.808960,214.115311 379.543152,214.150711 379.266663,213.783997 
	C387.064514,208.400818 394.905243,209.068039 402.922821,213.586334 
	C403.076630,214.152374 403.073700,214.379837 402.738708,214.686005 
z"/>
<path fill="#000000" opacity="1.000000" stroke="none" 
	d="
M393.305237,234.196777 
	C391.866302,236.260818 390.545715,235.996338 388.921387,235.008743 
	C387.336456,234.045090 387.914856,232.663254 388.206512,231.589539 
	C388.606201,230.118164 390.057526,229.698914 391.445709,230.040314 
	C393.447998,230.532745 393.972443,232.026810 393.305237,234.196777 
z"/>
<path fill="#000000" opacity="1.000000" stroke="none" 
	d="
M400.099457,252.722305 
	C393.963715,257.430023 387.620392,255.652084 381.098267,253.430588 
	C380.928131,252.848679 380.933441,252.619858 381.274719,252.320343 
	C387.265686,254.918137 393.011627,254.460831 399.109375,252.485443 
	C399.657166,252.269592 399.889587,252.318207 400.099457,252.722305 
z"/>
<path fill="#000000" opacity="1.000000" stroke="none" 
	d="
M385.563965,236.586319 
	C387.601654,238.563538 389.808655,239.724701 392.966217,239.252838 
	C389.499207,240.440170 385.311981,240.137558 384.568817,245.222137 
	C384.038361,242.435638 387.030701,240.276581 384.822632,237.471268 
	C385.060913,236.962906 385.200684,236.849960 385.563965,236.586319 
z"/>
<path fill="#000000" opacity="1.000000" stroke="none" 
	d="
M404.071686,250.734039 
	C403.323975,252.314606 401.915100,252.436371 400.420990,253.040405 
	C399.962189,252.939575 399.847443,252.801361 399.578735,252.442047 
	C399.614197,251.696976 399.803680,251.173004 399.956787,250.362045 
	C399.885773,249.809341 399.851166,249.543594 400.218384,249.267822 
	C401.501801,249.516006 401.632446,251.058258 403.164825,250.423798 
	C403.621399,250.291504 403.841675,250.343155 404.071686,250.734039 
z"/>
<path fill="#000000" opacity="1.000000" stroke="none" 
	d="
M378.762970,251.701324 
	C377.132660,250.905807 375.483948,250.557907 374.422241,248.817612 
	C374.264404,248.331848 374.324005,248.109619 374.728424,247.902924 
	C375.583496,247.955078 376.093811,247.991669 376.889465,248.105988 
	C376.478058,249.859207 377.809814,249.954544 378.948944,250.609802 
	C379.087982,251.158157 379.100281,251.395370 378.762970,251.701324 
z"/>
<path fill="#000000" opacity="1.000000" stroke="none" 
	d="
M397.565796,244.588425 
	C399.165985,245.557404 399.624695,247.190277 400.410919,249.007431 
	C400.508392,249.398132 400.396576,249.538483 400.102600,249.876953 
	C399.005951,248.623291 398.091522,247.171509 397.051941,245.400650 
	C397.065491,244.967468 397.204102,244.853394 397.565796,244.588425 
z"/>
<path fill="#000000" opacity="1.000000" stroke="none" 
	d="
M403.563293,250.454651 
	C403.779907,248.274063 404.567474,246.902878 406.965607,247.676773 
	C406.874146,249.285294 405.424225,249.736389 404.428528,250.922028 
	C403.962769,250.938675 403.844116,250.804062 403.563293,250.454651 
z"/>
<path fill="#000000" opacity="1.000000" stroke="none" 
	d="
M381.104004,252.878189 
	C380.149902,252.964523 379.275665,253.104019 378.611053,251.999466 
	C378.516571,251.622940 378.619720,251.475784 378.899261,251.124802 
	C380.172180,250.278549 381.172119,249.874664 381.421021,252.021790 
	C381.502197,252.392746 381.393677,252.535812 381.104004,252.878189 
z"/>
<path fill="#000000" opacity="1.000000" stroke="none" 
	d="
M379.876251,213.898163 
	C379.047974,214.755692 378.021149,215.431458 376.816132,216.224503 
	C376.515533,214.189285 377.655365,214.068771 378.973907,213.613037 
	C379.396576,213.493408 379.537140,213.604919 379.876251,213.898163 
z"/>
<path fill="#000000" opacity="1.000000" stroke="none" 
	d="
M402.902771,214.127960 
	C404.112366,214.514618 405.145142,215.104324 406.457855,215.853882 
	C404.844482,216.583817 403.838104,216.099625 402.646271,215.039780 
	C402.513123,214.620148 402.619507,214.475586 402.902771,214.127960 
z"/>
<path fill="#000000" opacity="1.000000" stroke="none" 
	d="
M371.569092,221.449768 
	C372.413910,220.887878 371.378448,218.738373 373.171478,219.255829 
	C373.269928,219.284256 372.917236,220.875809 372.428467,221.906036 
	C371.964539,221.937027 371.846680,221.801712 371.569092,221.449768 
z"/>
<path fill="#000000" opacity="1.000000" stroke="none" 
	d="
M377.279938,248.286499 
	C376.737366,247.151154 376.992554,246.204285 378.142059,245.584000 
	C378.309265,245.493790 378.670410,245.763062 378.941833,245.865997 
	C378.554993,246.501419 378.168152,247.136841 377.478088,247.977997 
	C377.174866,248.183731 377.246582,248.250580 377.279938,248.286499 
z"/>
<path fill="#000000" opacity="1.000000" stroke="none" 
	d="
M373.114227,245.879395 
	C373.677246,246.392700 374.279022,246.871475 374.976990,247.634369 
	C374.933838,248.031738 374.794434,248.144958 374.429932,248.406143 
	C373.497711,248.021561 372.782379,247.493622 373.122498,246.101990 
	C373.225586,245.770645 373.152985,245.844879 373.114227,245.879395 
z"/>
<path fill="#000000" opacity="1.000000" stroke="none" 
	d="
M387.127380,227.120453 
	C386.787476,227.467697 386.483429,227.853500 385.980103,228.406113 
	C385.633026,228.470947 385.485199,228.368988 385.131165,228.093689 
	C385.151123,227.059052 385.816132,226.985092 386.890259,227.125916 
	C387.238983,227.232315 387.163269,227.159012 387.127380,227.120453 
z"/>
<path fill="#000000" opacity="1.000000" stroke="none" 
	d="
M408.223145,218.222839 
	C407.580444,219.148788 407.036743,218.569229 406.597168,217.954514 
	C406.514160,217.838455 406.906433,217.382523 407.079407,217.083420 
	C407.385132,217.351135 407.690826,217.618835 408.223145,218.222839 
z"/>
<path fill="#000000" opacity="1.000000" stroke="none" 
	d="
M409.092224,220.867554 
	C407.969757,220.790878 407.994965,220.040054 408.253479,218.915314 
	C408.449738,218.559143 408.404510,218.602417 408.396088,218.607300 
	C408.675568,219.018799 408.963470,219.425430 409.408997,220.023163 
	C409.465820,220.362915 409.365051,220.511597 409.092224,220.867554 
z"/>
<path fill="#000000" opacity="1.000000" stroke="none" 
	d="
M382.048492,241.813034 
	C382.074707,241.124878 381.922974,240.131119 382.945221,240.082474 
	C383.121674,240.074081 383.499084,240.564987 383.473633,240.600037 
	C383.140137,241.059097 382.750824,241.477631 382.048492,241.813034 
z"/>
<path fill="#000000" opacity="1.000000" stroke="none" 
	d="
M381.632874,241.630539 
	C381.995056,242.371918 382.232086,243.160141 381.500153,243.845322 
	C381.392578,243.946045 380.968170,243.708359 380.690338,243.627243 
	C380.852051,243.175018 381.013763,242.722778 381.448456,241.995132 
	C381.721436,241.719727 381.662109,241.660538 381.632874,241.630539 
z"/>
<path fill="#000000" opacity="1.000000" stroke="none" 
	d="
M401.821106,245.696167 
	C402.564362,244.817963 402.999786,245.515274 403.402832,246.129395 
	C403.495789,246.271072 403.339081,246.783844 403.185638,246.844757 
	C402.445892,247.138474 402.178406,246.621384 401.821106,245.696167 
z"/>
<path fill="#000000" opacity="1.000000" stroke="none" 
	d="
M401.731110,245.271393 
	C401.154938,244.721909 400.538452,244.200699 400.753387,243.274216 
	C400.771851,243.194534 401.051544,243.115753 401.196869,243.134995 
	C402.076324,243.251465 401.945648,243.942337 401.800873,244.955780 
	C401.635284,245.369354 401.698425,245.303329 401.731110,245.271393 
z"/>
<path fill="#000000" opacity="1.000000" stroke="none" 
	d="
M122.260933,236.117416 
	C125.173523,239.422134 128.404022,240.167938 131.549377,237.678513 
	C134.580093,235.279770 134.985458,231.949890 132.421997,228.235840 
	C137.860397,228.430649 141.806839,224.931015 146.560577,223.701706 
	C147.442703,223.473587 146.888077,222.330994 146.064636,221.415039 
	C145.914917,220.846542 145.909698,220.618240 146.235535,220.302094 
	C152.185547,227.922943 152.319244,238.349731 145.377975,246.235001 
	C147.606812,240.887558 150.219696,235.610626 148.664093,229.414948 
	C145.529816,230.069931 142.247253,230.580139 139.067871,231.462158 
	C134.471710,232.737244 133.334991,235.533951 135.445892,239.917923 
	C135.969681,241.005737 136.502563,241.287750 134.623123,241.276917 
	C132.748260,241.266129 134.336502,242.906158 134.524857,244.122559 
	C134.776489,244.691376 134.759705,244.939453 134.390427,245.293213 
	C132.693634,245.321274 132.110794,244.254242 131.357773,243.378067 
	C129.217743,240.888016 126.876068,240.809586 124.438972,242.925339 
	C123.482300,243.755844 122.777878,245.570969 121.331848,244.838379 
	C119.522011,243.921432 120.853790,242.190903 121.087685,240.830780 
	C121.287483,239.668945 121.082710,238.504074 121.382431,236.989853 
	C121.621338,236.408798 121.761337,236.192795 122.260933,236.117416 
z"/>
<path fill="#000000" opacity="1.000000" stroke="none" 
	d="
M140.266479,215.075012 
	C131.531693,210.380051 130.166260,211.135956 129.999985,220.578400 
	C129.925125,224.829742 129.925140,224.829742 132.077774,227.005753 
	C129.654068,227.005753 127.320900,227.005753 124.613518,227.119217 
	C125.712509,225.381149 126.875648,223.521713 125.536018,221.014511 
	C125.100044,220.198547 125.064720,219.120239 125.015938,218.153351 
	C124.637039,210.643280 124.649895,210.642624 117.463463,214.038452 
	C116.808960,214.115280 116.543121,214.150665 116.266663,213.783936 
	C124.363022,208.487198 132.369720,208.694489 140.522980,214.131668 
	C140.713028,214.628784 140.659164,214.848206 140.266479,215.075012 
z"/>
<path fill="#000000" opacity="1.000000" stroke="none" 
	d="
M109.073090,221.734009 
	C109.069885,225.280121 111.948982,224.304321 113.549904,225.217743 
	C115.937988,226.580261 118.437943,227.535019 121.531578,227.957230 
	C122.152962,227.917160 122.381035,227.913925 122.694931,228.241882 
	C121.267090,230.804550 122.216545,233.267487 122.368973,235.944977 
	C122.507942,236.397720 122.395363,236.537369 122.099617,236.874115 
	C118.650856,234.497452 115.596382,231.873825 111.030167,231.370056 
	C107.719940,231.004852 107.395813,231.898285 107.694595,234.679367 
	C108.072716,238.198990 109.785172,241.275406 110.320770,245.281662 
	C103.798767,239.969055 104.231461,232.766495 106.590302,225.098724 
	C109.614571,228.054123 113.789726,227.761429 115.753677,228.802338 
	C113.923035,227.955231 110.396889,227.346497 107.121155,225.238663 
	C107.251198,223.946716 106.516518,222.513672 108.131790,221.476532 
	C108.625160,221.289200 108.844551,221.342361 109.073090,221.734009 
z"/>
<path fill="#000000" opacity="1.000000" stroke="none" 
	d="
M125.749626,230.748474 
	C128.533234,229.029480 130.350616,230.221786 130.790512,232.498367 
	C131.150482,234.361282 129.359421,236.150665 127.497955,235.790787 
	C125.221367,235.350632 124.028259,233.532944 125.749626,230.748474 
z"/>
<path fill="#000000" opacity="1.000000" stroke="none" 
	d="
M136.398041,252.619644 
	C130.964584,257.430817 124.621162,255.652267 118.392960,253.135498 
	C124.240234,252.006866 129.995544,252.938126 136.398041,252.619644 
z"/>
<path fill="#000000" opacity="1.000000" stroke="none" 
	d="
M141.072723,250.733765 
	C140.324387,252.314865 138.915054,252.435669 137.421509,253.040115 
	C136.949051,252.952026 136.820679,252.826813 136.499634,252.513885 
	C136.124115,251.701324 136.150696,251.075638 136.422287,250.154907 
	C136.690399,249.704376 136.835693,249.548370 137.291916,249.317749 
	C138.490997,249.505219 138.626755,251.048813 140.165283,250.423187 
	C140.623306,250.290314 140.843674,250.342285 141.072723,250.733765 
z"/>
<path fill="#000000" opacity="1.000000" stroke="none" 
	d="
M115.763016,251.750519 
	C114.145828,250.905396 112.485085,250.561798 111.418732,248.813843 
	C111.248459,248.328049 111.295982,248.107224 111.624153,247.701538 
	C112.118874,247.456772 112.332939,247.396896 112.878067,247.337296 
	C113.420250,247.397324 113.631386,247.457077 114.119049,247.692383 
	C115.158577,248.637314 115.923958,249.404877 116.351753,250.769592 
	C116.276848,251.307312 116.187782,251.513641 115.763016,251.750519 
z"/>
<path fill="#000000" opacity="1.000000" stroke="none" 
	d="
M134.568359,244.592072 
	C136.168106,245.555405 136.619125,247.182281 137.395981,248.992981 
	C137.493942,249.385696 137.385056,249.528275 137.096573,249.871307 
	C134.402863,249.723099 134.111404,247.709763 133.812241,245.428619 
	C134.061005,244.963272 134.202240,244.852066 134.568359,244.592072 
z"/>
<path fill="#000000" opacity="1.000000" stroke="none" 
	d="
M140.564545,250.453583 
	C141.600006,249.695511 140.097168,247.764450 141.725220,247.567627 
	C142.209427,247.509094 143.085602,248.005310 143.242386,248.441406 
	C143.673981,249.641876 142.197296,249.898972 141.443176,250.907471 
	C140.963013,250.938461 140.844574,250.803635 140.564545,250.453583 
z"/>
<path fill="#000000" opacity="1.000000" stroke="none" 
	d="
M118.109634,252.883987 
	C117.157669,252.959869 116.284134,253.111618 115.623039,252.010162 
	C115.529045,251.632767 115.630798,251.484482 115.901253,251.125671 
	C117.534492,248.928177 118.255211,249.789322 118.696663,251.954834 
	C118.543671,252.430527 118.419693,252.560120 118.109634,252.883987 
z"/>
<path fill="#000000" opacity="1.000000" stroke="none" 
	d="
M116.876282,213.898132 
	C116.047974,214.755646 115.021149,215.431381 113.816185,216.224350 
	C113.515594,214.189178 114.655579,214.068802 115.973999,213.612946 
	C116.396614,213.493301 116.537186,213.604828 116.876282,213.898132 
z"/>
<path fill="#000000" opacity="1.000000" stroke="none" 
	d="
M108.566589,221.451859 
	C109.256294,220.490234 108.787514,218.488602 111.029579,218.719894 
	C110.561592,219.836609 110.157372,220.801147 109.417686,221.919098 
	C108.963951,221.937561 108.845680,221.802612 108.566589,221.451859 
z"/>
<path fill="#000000" opacity="1.000000" stroke="none" 
	d="
M140.550232,214.569107 
	C141.112167,215.413864 143.261566,214.378464 142.744156,216.171478 
	C142.715775,216.269897 141.124191,215.917252 140.093964,215.428482 
	C140.062973,214.964554 140.198288,214.846695 140.550232,214.569107 
z"/>
<path fill="#000000" opacity="1.000000" stroke="none" 
	d="
M111.426826,248.402008 
	C110.542397,248.035904 109.805954,247.569382 110.039803,246.232346 
	C110.073174,245.920197 110.001472,245.994064 109.964890,246.030273 
	C111.194450,245.393356 111.676155,246.291763 112.118439,247.550751 
	C111.934036,248.031708 111.793381,248.143433 111.426826,248.402008 
z"/>
<path fill="#000000" opacity="1.000000" stroke="none" 
	d="
M124.127693,227.120789 
	C123.787598,227.467972 123.483414,227.853714 122.979988,228.406281 
	C122.632942,228.471069 122.485130,228.369064 122.131104,228.093750 
	C122.151176,227.058960 122.816261,226.985077 123.890518,227.126129 
	C124.239304,227.232681 124.163597,227.159363 124.127693,227.120789 
z"/>
<path fill="#000000" opacity="1.000000" stroke="none" 
	d="
M139.179169,244.303299 
	C138.436600,245.181931 138.000519,244.485199 137.597137,243.871201 
	C137.504089,243.729553 137.660461,243.216736 137.813889,243.155655 
	C138.553406,242.861313 138.821274,243.378128 139.179169,244.303299 
z"/>
<path fill="#000000" opacity="1.000000" stroke="none" 
	d="
M145.222992,218.222931 
	C144.580017,219.148926 144.036636,218.568970 143.597198,217.954300 
	C143.514236,217.838242 143.906540,217.382401 144.079544,217.083359 
	C144.385208,217.351120 144.690872,217.618866 145.222992,218.222931 
z"/>
<path fill="#000000" opacity="1.000000" stroke="none" 
	d="
M146.092209,220.867538 
	C144.969864,220.790878 144.994919,220.040161 145.253296,218.915436 
	C145.449432,218.559250 145.404144,218.602600 145.395676,218.607529 
	C145.675247,219.018997 145.963303,219.425537 146.408981,220.023163 
	C146.465836,220.362930 146.365067,220.511581 146.092209,220.867538 
z"/>
<path fill="#000000" opacity="1.000000" stroke="none" 
	d="
M139.269547,244.727921 
	C139.844742,245.278229 140.461853,245.799423 140.246429,246.725952 
	C140.227905,246.805618 139.948151,246.884293 139.802841,246.864944 
	C138.923553,246.747986 139.054352,246.057114 139.199432,245.043655 
	C139.365250,244.630081 139.302170,244.696014 139.269547,244.727921 
z"/>
<path fill="#000000" opacity="1.000000" stroke="none" 
	d="
M297.002289,313.856445 
	C296.999664,306.000000 296.999664,306.000000 304.512512,306.000000 
	C307.323578,306.000000 310.134613,305.999908 312.945679,306.000061 
	C318.512115,306.000366 320.945526,309.625763 319.001862,314.853943 
	C318.617126,315.888824 318.006592,315.994965 317.170441,315.994537 
	C310.887085,315.991455 304.603729,315.986877 298.320374,315.970490 
	C297.240753,315.967682 296.969482,315.258911 297.002289,313.856445 
z"/>
<path fill="#000000" opacity="1.000000" stroke="none" 
	d="
M104.005226,325.999817 
	C105.494827,322.389191 108.256836,324.447723 110.386589,324.085968 
	C112.630478,323.704803 114.990379,324.027557 117.299034,323.998352 
	C118.532532,323.982758 119.111778,324.502411 118.996544,325.752777 
	C118.925377,326.524902 119.200111,327.368896 118.274307,327.898102 
	C116.817101,328.731079 105.429771,327.630157 104.005226,325.999817 
z"/>
<path fill="#000000" opacity="1.000000" stroke="none" 
	d="
M231.839630,324.000000 
	C233.816833,324.292938 236.231247,322.957367 236.016830,326.237793 
	C235.825043,329.172058 233.642838,327.861267 232.329697,327.939728 
	C229.208633,328.126099 226.067871,327.953491 222.936935,328.017059 
	C221.445694,328.047333 220.962082,327.473877 220.960648,325.990173 
	C220.959198,324.488708 221.487396,323.950531 222.956787,323.983826 
	C225.757858,324.047363 228.561432,324.000824 231.839630,324.000000 
z"/>
<path fill="#000000" opacity="1.000000" stroke="none" 
	d="
M440.880615,328.000000 
	C437.759491,327.999695 435.121460,327.981995 432.483765,328.006165 
	C431.100525,328.018829 429.956757,328.079865 429.942444,326.042694 
	C429.928589,324.067841 430.929779,323.967560 432.399475,323.986664 
	C435.861145,324.031616 439.326294,323.925110 442.784698,324.040527 
	C444.013214,324.081512 445.856750,323.124603 446.038483,325.719177 
	C446.231659,328.477509 444.426300,327.974457 442.847626,327.998688 
	C442.353149,328.006287 441.858429,327.999939 440.880615,328.000000 
z"/>
<path fill="#000000" opacity="1.000000" stroke="none" 
	d="
M345.037109,313.000000 
	C347.335358,313.000031 349.151581,312.938232 350.961151,313.020905 
	C352.268646,313.080627 353.982788,312.345581 354.053772,314.895966 
	C354.121643,317.332794 352.633545,317.001251 351.166656,317.000397 
	C347.869629,316.998444 344.571686,317.044312 341.275940,316.979523 
	C339.808594,316.950684 337.843048,317.730133 337.954346,314.843292 
	C338.053284,312.277100 339.810364,313.133881 341.092194,313.021271 
	C342.237305,312.920715 343.398254,313.000061 345.037109,313.000000 
z"/>
<path fill="#FFFFFF" opacity="1.000000" stroke="none" 
	d="
M410.656158,227.657837 
	C406.384369,228.943680 402.405731,229.931244 397.108643,231.246063 
	C401.312103,227.723465 405.491852,227.046158 409.003265,225.120941 
	C410.682892,224.200027 411.164124,225.826538 410.656158,227.657837 
z"/>
<path fill="#FFFFFF" opacity="1.000000" stroke="none" 
	d="
M369.884705,225.017822 
	C374.816772,225.077393 378.552429,228.382034 382.979004,229.976028 
	C378.913879,230.167389 375.140442,228.983109 371.314514,228.019608 
	C369.345642,227.523773 370.067688,226.580597 370.301208,225.233429 
	C369.959595,224.924286 369.927155,225.006134 369.884705,225.017822 
z"/>
<path fill="#FFFFFF" opacity="1.000000" stroke="none" 
	d="
M391.999359,213.410858 
	C391.533905,217.447876 393.249725,221.394104 390.304199,224.752716 
	C389.324005,221.112137 390.909119,217.395966 389.093414,213.959366 
	C388.521820,212.877518 389.322021,211.607285 390.571838,211.221436 
	C392.174164,210.726791 391.902191,212.064270 391.999359,213.410858 
z"/>
<path fill="#FFFFFF" opacity="1.000000" stroke="none" 
	d="
M112.456520,247.958160 
	C111.564247,247.300903 111.053795,246.681793 110.235825,246.064590 
	C109.105843,242.204849 106.891960,238.840210 106.285858,234.835876 
	C105.650673,230.639359 106.851402,228.990555 110.897942,230.073120 
	C112.284828,230.444153 113.555054,231.043839 115.072800,231.037415 
	C118.821495,231.021545 120.449516,233.463745 121.572037,236.907043 
	C122.210075,239.578278 123.507530,242.187363 119.321190,244.657898 
	C124.098923,244.638809 122.459732,239.584595 127.267616,240.125107 
	C131.367874,240.586075 132.064056,242.195328 133.588547,244.925964 
	C134.707581,246.651718 135.495392,248.228943 136.600098,249.938965 
	C136.846466,250.666153 136.775940,251.260559 136.506180,252.090576 
	C130.704895,254.920303 125.011726,254.389374 118.978004,252.561676 
	C117.474121,252.543289 119.052132,248.985413 116.373184,250.881943 
	C116.018974,249.596054 113.735588,250.482269 114.164871,248.579346 
	C113.821991,248.213974 113.330170,248.105148 112.456520,247.958160 
z"/>
<path fill="#FFFFFF" opacity="1.000000" stroke="none" 
	d="
M147.971436,226.940674 
	C144.092377,229.915466 139.385269,229.207047 134.944305,230.030106 
	C138.832001,228.355606 142.693451,226.614929 146.626312,225.054260 
	C147.582138,224.674988 148.028687,225.566849 147.971436,226.940674 
z"/>
<path fill="#FFFFFF" opacity="1.000000" stroke="none" 
	d="
M132.296677,239.304535 
	C132.588898,239.312805 132.655624,239.541611 132.722351,239.770432 
	C132.505295,239.688644 132.288239,239.606857 132.296677,239.304535 
z"/>
<path fill="#FFFFFF" opacity="1.000000" stroke="none" 
	d="
M126.999939,218.181686 
	C127.747276,215.649368 124.345230,213.504608 127.070229,211.468964 
	C127.408691,211.216141 128.296188,211.064957 128.385269,211.207245 
	C129.594025,213.138107 128.928802,215.306625 128.952408,217.365967 
	C128.980988,219.857468 129.753296,222.619583 127.000000,224.794144 
	C127.000000,222.574020 127.000000,220.598022 126.999939,218.181686 
z"/>
<path fill="#FFFFFF" opacity="1.000000" stroke="none" 
	d="
M106.884895,225.017548 
	C111.816635,225.078018 115.552612,228.381607 119.978943,229.976196 
	C115.913841,230.167252 112.140327,228.983170 108.314354,228.019531 
	C106.345345,227.523605 107.068016,226.580261 107.301361,225.233185 
	C106.959740,224.923981 106.927330,225.005844 106.884895,225.017548 
z"/>
<path fill="#000000" opacity="1.000000" stroke="none" 
	d="
M114.280472,248.286896 
	C113.737236,247.151611 113.992332,246.204712 115.141739,245.584106 
	C115.308929,245.493851 115.670143,245.762970 115.941574,245.865814 
	C115.554878,246.501266 115.168182,247.136703 114.478455,247.978134 
	C114.175430,248.184128 114.247131,248.250977 114.280472,248.286896 
z"/>
<path fill="#000000" opacity="1.000000" stroke="none" 
	d="
M119.048080,241.812790 
	C119.074707,241.124756 118.923203,240.130722 119.945541,240.082581 
	C120.122032,240.074265 120.499199,240.565323 120.473740,240.600357 
	C120.140053,241.059280 119.750618,241.477692 119.048080,241.812790 
z"/>
<path fill="#000000" opacity="1.000000" stroke="none" 
	d="
M118.632500,241.630219 
	C118.995071,242.371582 119.231972,243.159760 118.500328,243.845169 
	C118.392761,243.945938 117.968285,243.708420 117.690430,243.627411 
	C117.852089,243.175156 118.013741,242.722885 118.448189,241.994965 
	C118.720978,241.719315 118.661728,241.660172 118.632500,241.630219 
z"/>
</svg>